<svg xmlns="http://www.w3.org/2000/svg" viewBox="0 0 48 48"><defs><style>.cls-3{fill:#9dcc6b}.cls-4{fill:#b5e08c}</style></defs><g id="_14._Earth_with_Sun" data-name="14. Earth with Sun"><path d="M45 27a20 20 0 0 1-20 20C4.34 47-2.72 19.27 15.47 9.42A20 20 0 0 1 45 27z" style="fill:#9fdbf3"/><path d="M45 27a19.92 19.92 0 0 1-7.47 15.58A19.89 19.89 0 0 1 28 45C9.22 45 .78 21.24 15.47 9.42A20 20 0 0 1 45 27z" style="fill:#b2e5fb"/><path class="cls-3" d="M14.25 23.69c-.25 1.54 0 3.46-1.42 4.18-1.74.87-6.83 1.13-7-6.09l-.1-.28a18.87 18.87 0 0 1 .84-2.36A3.71 3.71 0 0 1 9 23.39a3.72 3.72 0 0 1 5.25.3z"/><path class="cls-4" d="M14.25 21.69c-.28 1.72.07 3.61-1.7 4.3a3.3 3.3 0 0 1-4.39-3.51 19.61 19.61 0 0 1 .66-3.19 3.6 3.6 0 0 1 .18 2.1 3.72 3.72 0 0 1 5.25.3z"/><path class="cls-3" d="M23.62 38.74a2.94 2.94 0 0 0-2.25 2.76c-.08.73-1.41 1.7-2.46-1.46-.87-2.61-3.57-2.79-4.34-4.34-.87-1.74 0-5.22 3.47-4.35 0 0 2.61.87 3.48 2.61s3.54 0 4.35 1.74-.55 2.67-2.25 3.04z"/><path class="cls-4" d="M26.12 36.62c.13 1.77-2.45 2.06-2.59 2.15-1.53.37-1.51 1.46-1.75 1.06a7.46 7.46 0 0 1-.87-1.83c-1.16-3.49-5.66-2.67-4.52-6.77 1.93-.37 4.45 1.33 5.13 2.69.98 2 4.48-.47 4.6 2.7z"/><path class="cls-3" d="M39.78 26.77c-.61 1.85.87 6.09-.87 8.7-1 1.48-3.39 2.43-4.23 1.43-.65-.75-.87-2.15-.11-4s.86-4.35-1.74-5.22-5.22.87-6.09-3.47c-.54-2.7 2.1-3.85 3.48-5.22 2.61-2.61 0-3.48.87-6.09.52-1.57 2.62-2.51 4.21-3a20 20 0 0 1 9.22 12.81c-1.79.52-4.06 2.02-4.74 4.06z"/><path class="cls-4" d="M44.52 22.67c-2 .64-4.09 2.17-4.74 4.1-.57 1.72.67 5.51-.56 8.13-2.87 1.46-3.8-1.19-2.65-4 .72-1.81.86-4.35-1.74-5.22s-5.22.87-6.09-3.47a3.05 3.05 0 0 1 .39-2.29A8.67 8.67 0 0 0 31 18c4.52-3.57 1.06-4.1 2.06-7.1.1-.3 1.9-.91 2.21-1a19.92 19.92 0 0 1 9.25 12.77z"/><path d="M25.39 19A3.72 3.72 0 0 0 21 23.39 3.72 3.72 0 0 0 15 25a3.72 3.72 0 0 0-6-1.61A3.72 3.72 0 0 0 4.61 19 3.72 3.72 0 0 0 3 13a3.72 3.72 0 0 0 1.61-6A3.72 3.72 0 0 0 9 2.61 3.72 3.72 0 0 0 15 1a3.72 3.72 0 0 0 6 1.61A3.72 3.72 0 0 0 25.33 7h.05A3.72 3.72 0 0 0 27 13a3.72 3.72 0 0 0-1.61 6z" style="fill:#f16f39"/><path class="cls-3" d="M25.39 7s-.03 0 0 0z"/><path d="M25.39 19a3.72 3.72 0 0 0-4.31 2.56C10.26 24.79 2.3 11.3 10.14 3.3A3.71 3.71 0 0 0 15 1a3.72 3.72 0 0 0 6 1.61A3.72 3.72 0 0 0 25.33 7c.32 0-.88.54-.88 2.45A3.71 3.71 0 0 0 27 13a3.72 3.72 0 0 0-1.61 6z" style="fill:#f8834b"/><path d="M21 13a6 6 0 0 1-6 6c-6.91 0-8.31-9.85-1.67-11.76A6 6 0 0 1 21 13z" style="fill:#fc6"/><path d="M19.67 16.76c-5.63 1.7-10-5-6.34-9.52a6 6 0 0 1 6.34 9.52z" style="fill:#ffde76"/></g></svg>